# xmcd
#
# Track frame offsets:
# 183
# 13143
# 23760
# 35993
# 51220
# 60563
# 72883
# 84803
# 94845
# 105260
# 115533
# 127908
# 139888
# 151228
# 166498
# 175908
# 184983
# 195708
# 204750
# 215800
#
# Disc length: 3024 seconds
#
#
# Revision: 3
# Processed by: cddbd v1.5.1PL0 Copyright (c) Steve Scherf et al.
# Submitted via: FreeRIP 2.30 
#
DISCID=0f0bce14
DTITLE=Jim Reeves - 20 All Time Favourites
DYEAR=1900
DGENRE=Country
TTITLE0=Have I Told You Lately That I Love You
TTITLE1=Don't Let Me Cross Over
TTITLE2=Maria Elena
TTITLE3=Blue Side Of Nowhere
TTITLE4=What Would You Do
TTITLE5=A Letter To My Heart
TTITLE6=Don't Tell Me
TTITLE7=You'll Never Be Mine Again
TTITLE8=The World You Left Behind
TTITLE9=Most Of The Time
TTITLE10=Stand At Your Window
TTITLE11=Don't Ask Me Why
TTITLE12=Annie Marie
TTITLE13=Little Old Dime
TTITLE14=A Railroad Bum
TTITLE15=I Won't Forget You
TTITLE16=Your Old Love Letter
TTITLE17=Juanita
TTITLE18=According To My Heart
TTITLE19=I've Enjoyed As Much Of This As I Can Stand
EXTD=
EXTT0=
EXTT1=
EXTT2=
EXTT3=
EXTT4=
EXTT5=
EXTT6=
EXTT7=
EXTT8=
EXTT9=
EXTT10=
EXTT11=
EXTT12=
EXTT13=
EXTT14=
EXTT15=
EXTT16=
EXTT17=
EXTT18=
EXTT19=
PLAYORDER=
